HIERARCHY
ROOT Hips
{
  OFFSET 0 0 0
  CHANNELS 6 Xposition Yposition Zposition Zrotation Xrotation Yrotation
  JOINT Spine
  {
    OFFSET 0 10 0
    CHANNELS 3 Zrotation Xrotation Yrotation
    JOINT Neck
    {
      OFFSET 0 30 0
      CHANNELS 3 Zrotation Xrotation Yrotation
      JOINT Head
      {
        OFFSET 0 8 0
        CHANNELS 3 Zrotation Xrotation Yrotation
        End Site
        {
          OFFSET 0 10 0
        }
      }
    }
    JOINT LeftArm
    {
      OFFSET 15 30 0
      CHANNELS 3 Zrotation Xrotation Yrotation
      JOINT LeftForeArm
      {
        OFFSET 25 0 0
        CHANNELS 3 Zrotation Xrotation Yrotation
        JOINT LeftHand
        {
          OFFSET 25 0 0
          CHANNELS 3 Zrotation Xrotation Yrotation
          End Site
          {
            OFFSET 10 0 0
          }
        }
      }
    }
    JOINT RightArm
    {
      OFFSET -15 30 0
      CHANNELS 3 Zrotation Xrotation Yrotation
      JOINT RightForeArm
      {
        OFFSET -25 0 0
        CHANNELS 3 Zrotation Xrotation Yrotation
        JOINT RightHand
        {
          OFFSET -25 0 0
          CHANNELS 3 Zrotation Xrotation Yrotation
          End Site
          {
            OFFSET -10 0 0
          }
        }
      }
    }
  }
  JOINT LeftUpLeg
  {
    OFFSET 10 -10 0
    CHANNELS 3 Zrotation Xrotation Yrotation
    JOINT LeftLeg
    {
      OFFSET 0 -35 0
      CHANNELS 3 Zrotation Xrotation Yrotation
      JOINT LeftFoot
      {
        OFFSET 0 -40 0
        CHANNELS 3 Zrotation Xrotation Yrotation
        End Site
        {
          OFFSET 0 0 15
        }
      }
    }
  }
  JOINT RightUpLeg
  {
    OFFSET -10 -10 0
    CHANNELS 3 Zrotation Xrotation Yrotation
    JOINT RightLeg
    {
      OFFSET 0 -35 0
      CHANNELS 3 Zrotation Xrotation Yrotation
      JOINT RightFoot
      {
        OFFSET 0 -40 0
        CHANNELS 3 Zrotation Xrotation Yrotation
        End Site
        {
          OFFSET 0 0 15
        }
      }
    }
  }
}
MOTION
Frames:	8
Frame Time:	0.00833333
19.2105 83.2671 151.96 0 0 -0 -8.84416e-08 -5.28931e-08 4.38654e-08 1.33748e-07 5.28931e-08 5.96928e-08 -4.882e-08 3.46349e-17 3.0932e-07 -7.99999 4.82487e-07 1.75788e-05 -1.41036e-05 -4.6059e-07 -3.20004e-05 4.83688e-15 1.26952e-13 1.4489e-05 7.99999 3.49319e-06 -1.73614e-05 1.1072e-05 -6.8986e-06 2.94884e-05 2.55508e-06 3.41509e-06 -1.20742e-05 0 0 -0 -0 -6.83019e-06 -0 0.0419192 16.9491 -4.96641 3.41509e-06 0 -0 -3.41509e-06 -6.83019e-06 -0 -0.000896367 13.521 13.5352 
18.2482 82.4016 152.065 0.256352 7.20144 -8.10562 2.2521 -6.46924 -0.989733 -0.639199 -3.04901 -1.23898 0.467658 2.65367 -1.4371 -19.5517 12.2683 -3.06803 12.1586 -7.22077 -14.7612 4.66914e-06 -17.8617 1.52227e-05 18.7543 15.1369 7.05841 -13.447 -8.57205 15.4037 -3.53972e-07 -13.5462 -1.24197e-05 4.93408 -14.3659 -6.192 -0.0186458 10.0261 -0.166041 -0.0996732 13.0124 -4.35073 -0.101724 -11.0843 6.2352 0.0297627 10.8534 0.17793 0.264518 8.63242 11.7403 
17.2317 81.4889 152.165 2.76742 14.3246 -17.0603 4.39399 -13.3039 -2.08122 -1.46345 -6.2609 -2.56177 1.09949 5.45939 -2.96611 -30.2058 25.1156 -6.82465 21.0651 -13.2373 -31.0287 1.0818e-05 -36.7463 1.8082e-05 25.5217 30.3264 16.2909 -22.7616 -15.5517 32.6644 -3.83007e-06 -27.8711 -1.36586e-05 6.34518 -28.9686 -14.0945 0.0288334 20.7106 -0.360927 -0.156682 8.84394 -3.75161 2.59117 -22.3479 13.6136 -0.0174509 22.3254 0.388659 0.21871 3.40001 9.97945 
16.3237 80.6706 152.274 6.99394 19.83 -25.7517 6.05187 -19.3838 -3.12774 -2.3172 -9.1298 -3.75936 1.8052 7.94089 -4.34844 -37.9289 36.3298 -11.1889 26.2148 -15.9258 -46.17 1.96418e-05 -53.5852 2.44076e-05 26.1044 42.1533 28.0993 -27.637 -18.2683 48.8902 -7.80785e-06 -40.6385 -1.59115e-05 3.17663 -40.7502 -24.0639 0.14143 30.0772 -0.566842 -0.136366 5.11935 -3.22894 7.8352 -31.541 21.6845 -0.144941 32.5588 0.621998 -0.0886516 -1.3282 8.51207 
15.6867 80.0884 152.408 11.0912 22.9554 -32.411 7.01178 -23.6001 -3.91034 -2.96198 -11.1576 -4.60387 2.40944 9.63108 -5.32836 -41.8968 43.9072 -15.2249 28.866 -15.8246 -56.7379 3.15157e-05 -65.3099 3.46867e-05 22.4065 48.5909 39.5776 -30.0101 -17.6054 60.0316 -1.15882e-05 -49.5124 -1.85962e-05 -2.51319 -47.5768 -33.9871 0.26339 36.15 -0.731253 -0.0842422 2.51632 -2.83029 13.3913 -37.1582 28.6347 -0.299164 39.6971 0.830241 -0.444355 -4.68027 7.5626 
15.4284 79.8364 152.577 13.0833 23.9582 -35.4415 7.25172 -25.2288 -4.20858 -3.18801 -12.017 -4.92663 2.7418 10.2223 -5.72074 -43.0533 46.8175 -17.0075 29.8298 -15.311 -60.808 3.95319e-05 -69.8714 4.21035e-05 20.0075 50.5403 44.9893 -30.8709 -16.7181 64.1349 -1.34295e-05 -52.9339 -2.00323e-05 -5.66483 -49.5729 -39.2839 0.308058 37.5461 -0.776162 -0.0592281 1.50009 -2.47175 16.0357 -39.1187 31.8839 -0.379169 42.5019 0.926491 -0.612403 -6.06524 7.2758 
15.4406 79.8203 152.77 13.1384 23.8224 -35.7008 7.04175 -25.0142 -4.12565 -3.08375 -12.0454 -4.86807 2.85033 10.0326 -5.68643 -42.9946 46.5447 -16.5207 29.7422 -15.4071 -60.418 3.83774e-05 -69.3165 4.10214e-05 20.4719 50.4068 44.5097 -30.7293 -16.7676 63.5381 -1.31581e-05 -52.4609 -1.98164e-05 -5.19506 -48.9777 -39.8032 0.278408 35.6051 -0.721677 -0.0727399 1.61768 -2.14314 15.7049 -38.9291 31.8635 -0.370101 42.2119 0.914146 -0.590558 -6.03806 7.45277 
15.5624 79.8988 152.973 12.3927 23.2555 -34.8497 6.64781 -24.0547 -3.89039 -2.84285 -11.7453 -4.65512 2.87177 9.53799 -5.48046 -42.4062 44.9845 -15.1554 29.2404 -15.7579 -58.2514 3.36758e-05 -66.7202 3.66605e-05 22.1071 49.4455 41.6474 -30.1814 -17.1647 61.0594 -1.20569e-05 -50.4323 -1.89551e-05 -3.22555 -47.4631 -38.2538 0.227536 32.4352 -0.637575 -0.102713 2.16947 -2.00481 14.1698 -37.8946 30.5249 -0.325562 40.6862 0.858734 -0.495652 -5.44858 7.81621 
